<?xml version="1.0" standalone="no"?>
<!DOCTYPE svg PUBLIC "-//W3C//DTD SVG 20010904//EN"
 "http://www.w3.org/TR/2001/REC-SVG-20010904/DTD/svg10.dtd">
<svg version="1.0" xmlns="http://www.w3.org/2000/svg"
 width="200.000000pt" height="200.000000pt" viewBox="0 0 200.000000 200.000000"
 preserveAspectRatio="xMidYMid meet">

<g transform="translate(0.000000,200.000000) scale(0.100000,-0.100000)"
fill="#000000" stroke="none">
<path d="M406 1141 c-4 -5 -2 -12 3 -15 5 -4 12 -2 15 3 4 5 2 12 -3 15 -5 4
-12 2 -15 -3z"/>
<path d="M354 1104 c-5 -19 -46 -44 -72 -44 -7 0 -29 -34 -47 -75 -42 -91 -50
-121 -36 -129 10 -6 175 57 195 75 11 10 -10 62 -35 85 -10 9 -19 22 -19 27 0
6 3 7 6 4 11 -11 44 13 44 32 0 10 -7 24 -16 31 -13 11 -16 10 -20 -6z m24
-29 c-3 -3 -9 2 -12 12 -6 14 -5 15 5 6 7 -7 10 -15 7 -18z m-78 -35 c0 -5 -4
-10 -10 -10 -5 0 -10 5 -10 10 0 6 5 10 10 10 6 0 10 -4 10 -10z m28 -15 c-3
-3 -9 2 -12 12 -6 14 -5 15 5 6 7 -7 10 -15 7 -18z m-56 -107 c-31 -14 -58
-25 -60 -23 -1 1 9 30 24 64 l27 61 33 -37 33 -38 -57 -27z m94 71 c19 -22 19
-22 -3 -10 -24 12 -39 31 -25 31 5 0 17 -10 28 -21z m24 -39 c0 -5 -7 -10 -15
-10 -8 0 -15 5 -15 10 0 6 7 10 15 10 8 0 15 -4 15 -10z"/>
<path d="M427 1093 c-4 -3 -7 -15 -7 -25 0 -10 -7 -18 -15 -18 -8 0 -15 -6
-15 -14 0 -8 7 -16 15 -20 18 -6 45 2 45 15 0 4 9 17 21 28 12 11 18 24 14 30
-7 12 -48 15 -58 4z m47 -12 c4 -5 -3 -7 -14 -4 -23 6 -26 13 -6 13 8 0 17 -4
20 -9z m-47 -47 c-3 -3 -12 -4 -19 -1 -8 3 -5 6 6 6 11 1 17 -2 13 -5z"/>
<path d="M607 1093 c-18 -18 -6 -63 23 -83 31 -22 39 -45 18 -53 -8 -4 -7 -6
3 -6 34 -2 31 32 -6 65 -39 37 -39 37 -25 65 10 18 1 27 -13 12z"/>
<path d="M657 1075 c3 -14 10 -25 15 -25 13 0 6 43 -8 47 -7 2 -10 -6 -7 -22z"/>
<path d="M712 1088 c-18 -18 -15 -113 4 -132 21 -21 30 -20 48 6 18 26 21 90
6 119 -12 21 -40 25 -58 7z m46 -57 c3 -50 -11 -87 -28 -76 -15 9 -21 80 -10
109 16 42 35 26 38 -33z"/>
<path d="M800 1025 l0 -75 38 1 c30 2 32 3 10 6 -27 4 -28 6 -28 74 0 39 -4
69 -10 69 -6 0 -10 -32 -10 -75z"/>
<path d="M892 1088 c-31 -39 -15 -143 23 -143 37 0 60 89 35 136 -12 22 -43
25 -58 7z m46 -57 c4 -62 -14 -94 -35 -65 -25 34 -9 131 20 121 7 -2 13 -27
15 -56z"/>
<path d="M1030 1038 c-13 -67 -23 -65 -35 10 -4 23 -11 42 -16 42 -4 0 -7 -6
-4 -12 2 -7 9 -39 15 -70 15 -77 34 -75 49 3 7 34 15 67 18 75 3 8 1 14 -5 14
-5 0 -15 -28 -22 -62z"/>
<path d="M1230 1052 c0 -64 -13 -67 -30 -7 -15 53 -40 61 -39 13 0 -18 4 -51
8 -73 l9 -40 2 50 2 50 21 -47 c11 -27 24 -48 28 -48 10 0 17 133 7 145 -4 5
-8 -14 -8 -43z"/>
<path d="M1260 1090 c0 -5 5 -10 10 -10 6 0 10 -28 10 -65 0 -37 4 -65 10 -65
6 0 10 28 10 65 0 51 3 65 15 65 8 0 15 5 15 10 0 6 -16 10 -35 10 -19 0 -35
-4 -35 -10z"/>
<path d="M1070 1020 l0 -70 38 1 c30 2 32 3 10 6 -34 5 -41 43 -8 43 11 0 20
5 20 10 0 6 -9 10 -20 10 -15 0 -20 7 -20 29 0 25 5 30 28 34 22 3 20 4 -10 6
l-38 1 0 -70z"/>
<path d="M426 982 c-3 -6 -1 -14 5 -17 15 -10 25 3 12 16 -7 7 -13 7 -17 1z"/>
<path d="M600 978 c0 -9 5 -20 11 -23 17 -11 20 0 4 21 -13 17 -14 17 -15 2z"/>
</g>
</svg>
